<svg width="18" height="18" viewBox="0 0 18 18" fill="none" xmlns="http://www.w3.org/2000/svg">
<path d="M18 9C18 13.9706 13.9706 18 9 18C4.02944 18 0 13.9706 0 9C0 4.02944 4.02944 0 9 0C13.9706 0 18 4.02944 18 9Z" fill="white"/>
<path fill-rule="evenodd" clip-rule="evenodd" d="M9 17C13.4183 17 17 13.4183 17 9C17 4.58172 13.4183 1 9 1C4.58172 1 1 4.58172 1 9C1 13.4183 4.58172 17 9 17ZM9 18C13.9706 18 18 13.9706 18 9C18 4.02944 13.9706 0 9 0C4.02944 0 0 4.02944 0 9C0 13.9706 4.02944 18 9 18Z" fill="black"/>
<path fill-rule="evenodd" clip-rule="evenodd" d="M11.4328 12.0001L6.0009 6.56819L6.70801 5.86108L12.1399 11.293L11.4328 12.0001Z" fill="black"/>
<path fill-rule="evenodd" clip-rule="evenodd" d="M6.00063 11.3962L11.4325 5.96428L12.1396 6.67139L6.70774 12.1033L6.00063 11.3962Z" fill="black"/>
</svg>
