<svg width="21" height="17" viewBox="0 0 21 17" fill="none" xmlns="http://www.w3.org/2000/svg">
<path fill-rule="evenodd" clip-rule="evenodd" d="M5.8 1.5C3.13104 1.5 1.5 3.15665 1.5 5.05687C1.5 6.09265 1.68905 6.86085 2.2602 7.74653C2.85225 8.66461 3.85835 9.71508 5.54093 11.2835C6.2488 11.9434 7.58769 13.0753 8.75974 14.0502C9.34364 14.5359 9.88272 14.9798 10.2759 15.3023C10.3994 15.4036 10.5085 15.493 10.6 15.5678C10.6915 15.493 10.8006 15.4036 10.9241 15.3023C11.3173 14.9798 11.8564 14.5359 12.4403 14.0502C13.6123 13.0753 14.9512 11.9434 15.6591 11.2835C17.3417 9.71508 18.3477 8.66461 18.9398 7.74653C19.511 6.86085 19.7 6.09265 19.7 5.05687C19.7 3.15665 18.069 1.5 15.4 1.5C13.2278 1.5 11.9196 2.69902 11.0067 3.97555L10.6 4.54422L10.1933 3.97555C9.28038 2.69902 7.9722 1.5 5.8 1.5ZM10.6 16.2133L10.2844 16.6011L10.1108 16.4595C9.99944 16.3686 9.83883 16.2372 9.64163 16.0755C9.24728 15.752 8.70636 15.3066 8.12026 14.819C6.95232 13.8475 5.5912 12.6975 4.85907 12.015C3.18165 10.4514 2.08775 9.32427 1.4198 8.28848C0.730949 7.2203 0.5 6.25834 0.5 5.05687C0.5 2.4826 2.70896 0.5 5.8 0.5C8.0981 0.5 9.58859 1.63626 10.6 2.86324C11.6114 1.63626 13.1019 0.5 15.4 0.5C18.491 0.5 20.7 2.4826 20.7 5.05687C20.7 6.25834 20.4691 7.2203 19.7802 8.28848C19.1123 9.32427 18.0184 10.4514 16.3409 12.015C15.6088 12.6975 14.2477 13.8475 13.0797 14.819C12.4936 15.3066 11.9527 15.752 11.5584 16.0755C11.3612 16.2372 11.2006 16.3686 11.0892 16.4595L10.9163 16.6005L10.6 16.2133ZM10.6 16.2133L10.9163 16.6005L10.6 16.8578L10.2844 16.6011L10.6 16.2133Z" fill="black"/>
</svg>
