<svg width="45" height="45" viewBox="0 0 45 45" fill="none" xmlns="http://www.w3.org/2000/svg">
<path fill-rule="evenodd" clip-rule="evenodd" d="M9.375 6.125C7.58007 6.125 6.125 7.58007 6.125 9.375V35.625C6.125 37.4199 7.58007 38.875 9.375 38.875H35.625C37.4199 38.875 38.875 37.4199 38.875 35.625V9.375C38.875 7.58007 37.4199 6.125 35.625 6.125H9.375ZM5.125 9.375C5.125 7.02779 7.02779 5.125 9.375 5.125H35.625C37.9722 5.125 39.875 7.02779 39.875 9.375V35.625C39.875 37.9722 37.9722 39.875 35.625 39.875H9.375C7.02779 39.875 5.125 37.9722 5.125 35.625V9.375Z" fill="#374151"/>
<path fill-rule="evenodd" clip-rule="evenodd" d="M15.9375 13.625C14.6603 13.625 13.625 14.6603 13.625 15.9375C13.625 17.2147 14.6603 18.25 15.9375 18.25C17.2147 18.25 18.25 17.2147 18.25 15.9375C18.25 14.6603 17.2147 13.625 15.9375 13.625ZM12.625 15.9375C12.625 14.1081 14.1081 12.625 15.9375 12.625C17.7669 12.625 19.25 14.1081 19.25 15.9375C19.25 17.7669 17.7669 19.25 15.9375 19.25C14.1081 19.25 12.625 17.7669 12.625 15.9375Z" fill="#374151"/>
<path fill-rule="evenodd" clip-rule="evenodd" d="M29.6465 18.3964C29.8417 18.2012 30.1583 18.2012 30.3536 18.3964L39.7286 27.7714C39.9238 27.9667 39.9238 28.2833 39.7286 28.4786C39.5333 28.6738 39.2167 28.6738 39.0215 28.4786L30 19.4571L9.72855 39.7286C9.53329 39.9238 9.21671 39.9238 9.02145 39.7286C8.82618 39.5333 8.82618 39.2167 9.02145 39.0214L29.6465 18.3964Z" fill="#374151"/>
</svg>
