<svg width="17" height="17" viewBox="0 0 17 17" fill="none" xmlns="http://www.w3.org/2000/svg">
<path fill-rule="evenodd" clip-rule="evenodd" d="M9 -4.37112e-08L9 3L8 3L8 0L9 -4.37112e-08Z" fill="black"/>
<path fill-rule="evenodd" clip-rule="evenodd" d="M9 14L9 17L8 17L8 14L9 14Z" fill="black"/>
<path fill-rule="evenodd" clip-rule="evenodd" d="M17 9L14 9L14 8L17 8L17 9Z" fill="black"/>
<path fill-rule="evenodd" clip-rule="evenodd" d="M3 9L0 9L0 8L3 8L3 9Z" fill="black"/>
<path fill-rule="evenodd" clip-rule="evenodd" d="M14.8636 2.84311L12.7423 4.96443L12.0352 4.25732L14.1565 2.136L14.8636 2.84311Z" fill="black"/>
<path fill-rule="evenodd" clip-rule="evenodd" d="M4.96515 12.7428L2.84383 14.8641L2.13672 14.157L4.25804 12.0357L4.96515 12.7428Z" fill="black"/>
<path fill-rule="evenodd" clip-rule="evenodd" d="M14.1564 14.8641L12.0351 12.7428L12.7422 12.0356L14.8635 14.157L14.1564 14.8641Z" fill="black"/>
<path fill-rule="evenodd" clip-rule="evenodd" d="M4.25699 4.96466L2.13567 2.84334L2.84277 2.13623L4.96409 4.25755L4.25699 4.96466Z" fill="black"/>
</svg>
