<svg xmlns="http://www.w3.org/2000/svg" version="1.1" xmlns:xlink="http://www.w3.org/1999/xlink" xmlns:svgjs="http://svgjs.com/svgjs" width="512" height="512" x="0" y="0" viewBox="0 0 32 32" style="enable-background:new 0 0 512 512" xml:space="preserve" class=""><g><path d="M29.545 2.162a1 1 0 0 0-.951-.076l-7.971 3.543-8.894-3.558a1 1 0 0 0-.778.015L2.594 5.8A1 1 0 0 0 2 6.714V29a1 1 0 0 0 1.406.914l7.971-3.543 8.894 3.558a1.009 1.009 0 0 0 .778-.015l8.357-3.714a1 1 0 0 0 .594-.914V3a1 1 0 0 0-.455-.838ZM12.357 4.477l7.286 2.915v20.131l-7.286-2.915ZM4 7.364l6.357-2.825v20.1L4 27.461Zm24 17.272-6.357 2.825V7.364L28 4.539Z" fill="#000000" data-original="#000000"></path></g></svg>
