<svg xmlns="http://www.w3.org/2000/svg" version="1.1" xmlns:xlink="http://www.w3.org/1999/xlink" width="512" height="512" x="0" y="0" viewBox="0 0 32 32"
     style="enable-background:new 0 0 512 512" xml:space="preserve"><g><g data-name="resize, navigation, full, size, move, editing, maximize"><path
        d="M7 26h5a1 1 0 0 0 0-2H9.41L16 17.41 22.59 24H20a1 1 0 0 0 0 2h5a1 1 0 0 0 1-1v-5a1 1 0 0 0-2 0v2.59L17.41 16 24 9.41V12a1 1 0 0 0 2 0V7a1 1 0 0 0-1-1h-5a1 1 0 0 0 0 2h2.59L16 14.59 9.41 8H12a1 1 0 0 0 0-2H7a1 1 0 0 0-1 1v5a1 1 0 0 0 2 0V9.41L14.59 16 8 22.59V20a1 1 0 0 0-2 0v5a1 1 0 0 0 1 1z"
        fill="#000000"></path></g></g></svg>
