<svg width="28" height="28" viewBox="0 0 28 28" fill="none" xmlns="http://www.w3.org/2000/svg">
<path fill-rule="evenodd" clip-rule="evenodd" d="M20.2929 20.2929C23.7684 16.8174 23.7684 11.1826 20.2929 7.70711C16.8174 4.23164 11.1826 4.23164 7.70711 7.70711C4.23164 11.1826 4.23164 16.8174 7.70711 20.2929C11.1826 23.7684 16.8174 23.7684 20.2929 20.2929ZM21 21C24.866 17.134 24.866 10.866 21 7C17.134 3.13401 10.866 3.13401 7 7C3.13401 10.866 3.13401 17.134 7 21C10.866 24.866 17.134 24.866 21 21Z" fill="black"/>
<path fill-rule="evenodd" clip-rule="evenodd" d="M25.5293 26.3532L19.7646 20.5885L20.4717 19.8813L26.2364 25.6461L25.5293 26.3532Z" fill="black"/>
</svg>
