<svg width="83" height="30" viewBox="0 0 83 30" fill="none" xmlns="http://www.w3.org/2000/svg">
<g clip-path="url(#clip0_298_5118)">
<path d="M30.1895 0.29541L31.809 2.25018V11.1314H34.0384V0.29541H31.809H30.1895Z" fill="black"/>
<path d="M0 0.29541L1.61551 2.25018V11.1314H3.84895V0.29541H1.61551H0Z" fill="black"/>
<path d="M14.5033 7.28249L8.63501 0.29541H7.32645H5.71094L7.32645 2.25018V11.1314H9.55585V4.92384L14.7295 11.1314H16.761V0.29541H14.5033V7.28249Z" fill="black"/>
<path d="M80.2699 7.28249L74.4016 0.29541H73.093H71.4775L73.093 2.25018V11.1314H75.3265V4.92384L80.4961 11.1314H82.5276V0.29541H80.2699V7.28249Z" fill="black"/>
<path d="M56.1353 4.68959H51.0262L51.0303 0.29541H48.7686V11.1314H51.0262V6.74129H51.4867H56.1353V11.1314H58.393V0.29541H56.1353V4.68959Z" fill="black"/>
<path d="M43.772 8.71207C43.2712 8.96425 42.7173 9.09303 42.1565 9.08768C41.6908 9.08996 41.2289 9.00361 40.7955 8.83324C40.3737 8.6704 39.9851 8.43228 39.6485 8.13049C39.3037 7.82378 39.03 7.44551 38.8465 7.02207C38.663 6.59864 38.5742 6.14027 38.5863 5.67896C38.5734 5.21813 38.6619 4.7601 38.8454 4.3372C39.029 3.91431 39.3031 3.53685 39.6485 3.23146C39.9849 2.92844 40.3735 2.68897 40.7955 2.52468C41.2289 2.3543 41.6908 2.26795 42.1565 2.27023C42.7176 2.26629 43.2715 2.39645 43.772 2.64988C44.2288 2.88307 44.6319 3.20909 44.9554 3.60706L46.7446 2.17734L46.5346 1.94713C45.9886 1.34355 45.3247 0.858332 44.5838 0.521441C43.8781 0.187645 43.112 0.000495594 42.3319 -0.0286823C41.5517 -0.0578602 40.7738 0.0715428 40.0451 0.35169C39.3164 0.631838 38.6521 1.0569 38.0925 1.60118C37.5328 2.14545 37.0894 2.79762 36.789 3.51821C36.4959 4.20087 36.3447 4.93603 36.3447 5.67896C36.3447 6.42188 36.4959 7.15704 36.789 7.83969C37.0707 8.52699 37.4821 9.15363 38.0006 9.68542C38.8538 10.5133 39.9358 11.066 41.1067 11.2719C42.2775 11.4779 43.4832 11.3276 44.5677 10.8405C45.3085 10.5036 45.9724 10.0184 46.5184 9.41482L46.7284 9.18461L44.9392 7.75488C44.6194 8.15004 44.2222 8.47575 43.772 8.71207Z" fill="black"/>
<path d="M22.5841 8.86165V6.95938V6.74129H26.6956V4.68959H22.5841V4.6169V2.56924V2.34711H22.6649H28.1899V0.29541H21.4533H20.3264H18.7109L20.3264 2.25018V11.1314H21.4533V11.1355H22.7739H28.7796V9.08378H22.5841V8.86165Z" fill="black"/>
<path d="M64.1359 8.86165V6.95938V6.74129H68.2433V4.68959H64.1359V4.6169V2.56924V2.34711H64.2166H69.7376V0.29541H63.005H61.8782H60.2627L61.8782 2.25018V11.1314H63.005V11.1355H64.3217H70.3313V9.08378H64.1359V8.86165Z" fill="black"/>
<path d="M4.67665 20.2585H2.09991L1.62334 21.5227H0.0966797L2.51994 15.7876H4.25257L6.67584 21.5227H5.14918L4.67665 20.2585ZM4.297 19.265L3.74773 17.8191C3.5924 17.489 3.47584 17.1421 3.40039 16.7852H3.37616C3.30071 17.1421 3.18416 17.489 3.02883 17.8191L2.47955 19.265H4.297Z" fill="black"/>
<path d="M10.0563 15.7825V19.1751C10.0563 19.5339 10.1989 19.8781 10.4526 20.1318C10.7063 20.3855 11.0505 20.5281 11.4093 20.5281C11.7681 20.5281 12.1123 20.3855 12.366 20.1318C12.6197 19.8781 12.7623 19.5339 12.7623 19.1751V15.7825H14.2324V19.2801C14.2324 20.726 13.2066 21.6791 11.4053 21.6791C9.60397 21.6791 8.57812 20.726 8.57812 19.2559V15.7664L10.0563 15.7825Z" fill="black"/>
<path d="M16.6152 18.6688C16.6152 16.8513 17.8915 15.6235 19.8463 15.6235C21.4618 15.6235 22.5765 16.4313 22.8269 17.7237L21.3244 17.9903C21.2789 17.6334 21.097 17.308 20.817 17.0822C20.537 16.8563 20.1804 16.7476 19.822 16.7786C18.7719 16.7786 18.1338 17.4975 18.1338 18.6526C18.1338 19.8077 18.78 20.5185 19.8463 20.5185C20.1976 20.5457 20.5465 20.4407 20.8244 20.224C21.1023 20.0073 21.2893 19.6947 21.3487 19.3473L22.8349 19.6704C22.4795 20.9224 21.4214 21.6898 19.8139 21.6898C17.8026 21.6817 16.6152 20.4943 16.6152 18.6688Z" fill="black"/>
<path d="M30.0243 16.9378H28.0533V21.5218H26.5832V16.9378H24.6123V15.7827H30.0243V16.9378Z" fill="black"/>
<path d="M32.3662 21.5227V15.7876H33.8283V21.5227H32.3662Z" fill="black"/>
<path d="M36.3086 18.6526C36.3086 16.8029 37.5929 15.6235 39.5638 15.6235C41.5348 15.6235 42.8191 16.8029 42.8191 18.6526C42.8191 20.5024 41.5428 21.6817 39.5638 21.6817C37.5848 21.6817 36.3086 20.4943 36.3086 18.6526ZM41.2924 18.6526C41.2924 17.4814 40.6301 16.7463 39.5638 16.7463C38.4976 16.7463 37.8433 17.4814 37.8433 18.6526C37.8433 19.8239 38.5057 20.5589 39.5638 20.5589C40.622 20.5589 41.2924 19.8239 41.2924 18.6526Z" fill="black"/>
<path d="M45.3066 15.7827H46.9221L49.2566 19.0541C49.4125 19.2755 49.5477 19.5107 49.6604 19.7569H49.6847C49.6847 19.5145 49.6847 19.2641 49.6847 18.9895V15.7827H51.0255V21.5218H49.4868L47.0635 18.2181C46.9096 18.0012 46.7745 17.7715 46.6596 17.5315C46.6596 17.7819 46.6596 18.0323 46.6596 18.3069V21.538H45.3188L45.3066 15.7827Z" fill="black"/>
<path d="M58.6833 20.4605V21.5227H53.9297V15.7876H58.6308V16.8458H55.3998V18.0897H58.5016V19.0994H55.3998V20.4564L58.6833 20.4605Z" fill="black"/>
<path d="M66.1631 20.4605V21.5227H61.4014V15.7876H66.1065V16.8458H62.8755V18.0897H65.9773V19.0994H62.8755V20.4564L66.1631 20.4605Z" fill="black"/>
<path d="M71.5265 19.3861H70.3472V21.5227H68.873V15.7876H71.9748C73.5903 15.7876 74.18 16.5954 74.18 17.5727C74.188 17.9388 74.0729 18.2969 73.8532 18.5898C73.6336 18.8827 73.322 19.0934 72.9684 19.1882L74.3416 21.5146H72.726L71.5265 19.3861ZM70.3472 18.4168H71.6719C72.3827 18.4168 72.6574 18.0533 72.6574 17.5848C72.6574 17.1164 72.3908 16.7771 71.6719 16.7771H70.3472V18.4168Z" fill="black"/>
<path d="M76.0742 20.3109L77.1485 19.5597C77.3529 19.8946 77.6439 20.1682 77.9908 20.3516C78.3377 20.535 78.7276 20.6214 79.1195 20.6017C79.8707 20.6017 80.3311 20.3917 80.3311 19.9393C80.3311 19.487 80.0807 19.3901 79.4506 19.2851L78.2713 19.1154C77.1001 18.9216 76.4781 18.3885 76.4781 17.3868C76.4781 16.3044 77.4474 15.6421 79.0629 15.6421C80.2746 15.6421 81.2358 16.0217 81.777 16.8053L80.8238 17.613C80.6255 17.3066 80.3494 17.0584 80.0237 16.8937C79.698 16.7291 79.3343 16.654 78.97 16.676C78.2754 16.676 77.8715 16.8941 77.8715 17.2738C77.8715 17.6534 78.1057 17.8069 78.7681 17.9119L79.9151 18.0896C81.1752 18.2834 81.7649 18.76 81.7649 19.7778C81.7649 20.941 80.7794 21.676 79.0427 21.676C77.617 21.6801 76.5468 21.1389 76.0742 20.3109Z" fill="black"/>
<path d="M30.7343 29.39V29.915H28.3555V27.0515H30.706V27.5806H29.0905V28.2026H30.6414V28.7115H29.0905V29.39H30.7343Z" fill="black"/>
<path d="M31.7529 29.3053L32.2901 28.9297C32.3923 29.0972 32.5378 29.234 32.7112 29.3257C32.8847 29.4174 33.0796 29.4606 33.2755 29.4507C33.6511 29.4507 33.8814 29.3457 33.8814 29.1196C33.8814 28.8934 33.7562 28.8449 33.4411 28.7924L32.8515 28.7076C32.2659 28.6107 31.9549 28.3441 31.9549 27.8433C31.9549 27.3425 32.4395 26.9709 33.2473 26.9709C33.5039 26.9482 33.7622 26.9894 33.999 27.0909C34.2358 27.1924 34.4438 27.351 34.6043 27.5525L34.1277 27.9564C34.0267 27.8078 33.8885 27.6883 33.727 27.6097C33.5654 27.531 33.3861 27.496 33.2069 27.5081C32.8596 27.5081 32.6576 27.6171 32.6576 27.807C32.6576 27.9968 32.7747 28.0735 33.1059 28.126L33.6794 28.2149C34.3095 28.3118 34.6043 28.5501 34.6043 29.059C34.6043 29.6365 34.1116 30.004 33.2432 30.004C32.955 30.0318 32.6646 29.9816 32.4024 29.8587C32.1402 29.7358 31.9159 29.5447 31.7529 29.3053Z" fill="black"/>
<path d="M38.2353 27.6291H37.2498V29.915H36.5148V27.6291H35.5293V27.0515H38.2353V27.6291Z" fill="black"/>
<path d="M39.6331 29.916H38.8818V29.2617H39.6331V29.916Z" fill="black"/>
<path d="M43.586 28.0126C43.4264 28.1438 43.2226 28.2088 43.0165 28.1943H42.8711V27.5804H42.9599C43.1186 27.5945 43.2774 27.5558 43.4118 27.4704C43.5461 27.3849 43.6485 27.2575 43.7031 27.1079H44.2887V29.9108H43.586V28.0126Z" fill="black"/>
<path d="M48.2306 28.4651C48.2306 29.4304 47.7823 29.9917 46.8897 29.9917C46.2395 29.9917 45.7952 29.709 45.6781 29.2042L46.3728 29.0951C46.4013 29.2108 46.4704 29.3123 46.5675 29.3812C46.6646 29.4502 46.7833 29.4819 46.9018 29.4707C47.3057 29.4707 47.5359 29.1638 47.544 28.6226C47.4415 28.7318 47.3155 28.8161 47.1756 28.8693C47.0356 28.9225 46.8854 28.9431 46.7362 28.9295C46.0577 28.9295 45.6377 28.5862 45.6377 28.0087C45.6377 27.4312 46.1223 27.0515 46.8816 27.0515C47.754 27.0515 48.2306 27.5402 48.2306 28.4651ZM47.5359 28.0612C47.5186 27.9101 47.4432 27.7716 47.3256 27.6751C47.208 27.5787 47.0575 27.5317 46.9059 27.5442C46.5626 27.5442 46.3485 27.7179 46.3485 27.9966C46.3485 28.2753 46.5626 28.4409 46.8897 28.4409C47.023 28.4491 47.1557 28.4174 47.2708 28.3498C47.3859 28.2821 47.4783 28.1816 47.5359 28.0612Z" fill="black"/>
<path d="M49.6852 29.863C49.7 29.4371 49.8091 29.0199 50.0047 28.6414C50.2002 28.2629 50.4774 27.9324 50.8161 27.6739H49.1602V27.1125H51.5067V27.6336C51.1783 27.8904 50.9121 28.2181 50.7282 28.5923C50.5443 28.9665 50.4473 29.3774 50.4445 29.7943V29.9155H49.669L49.6852 29.863Z" fill="black"/>
<path d="M52.4922 29.0465L53.2111 28.9818C53.2111 29.3009 53.4373 29.4746 53.7886 29.4746C54.14 29.4746 54.3258 29.3373 54.3258 29.0707C54.3258 28.8041 54.14 28.7032 53.7644 28.7032H53.5261V28.2549H53.7482C54.0835 28.2549 54.2531 28.1297 54.2531 27.8954C54.2531 27.6612 54.0794 27.5481 53.7523 27.5481C53.6831 27.5385 53.6127 27.5443 53.546 27.565C53.4793 27.5857 53.418 27.6208 53.3664 27.6678C53.3147 27.7148 53.2741 27.7726 53.2472 27.837C53.2204 27.9015 53.2081 27.9711 53.2111 28.0408L52.5043 27.96C52.5043 27.4108 52.9768 27.0352 53.7725 27.0352C54.5681 27.0352 54.9841 27.33 54.9841 27.8227C54.9773 27.9863 54.9098 28.1414 54.7948 28.2579C54.6798 28.3744 54.5256 28.4439 54.3621 28.4528C54.8024 28.5093 55.0568 28.7314 55.0568 29.1232C55.0568 29.6361 54.5721 29.9754 53.7725 29.9754C52.9728 29.9754 52.5124 29.6361 52.4922 29.0465Z" fill="black"/>
</g>
<defs>
<clipPath id="clip0_298_5118">
<rect width="82.5283" height="30" fill="white"/>
</clipPath>
</defs>
</svg>
