<svg width="1380" height="30" viewBox="0 0 1380 30" fill="none" xmlns="http://www.w3.org/2000/svg">
<line x1="458.5" y1="30" x2="458.5" y2="1.03495e-07" stroke="black" stroke-width="3"/>
<line x1="921.5" y1="30" x2="921.5" y2="1.03495e-07" stroke="black" stroke-width="3"/>
<line x1="554.5" y1="23" x2="554.5" y2="8" stroke="black"/>
<line x1="643.5" y1="23" x2="643.5" y2="8" stroke="black"/>
<line x1="738.5" y1="23" x2="738.5" y2="8" stroke="black"/>
<line x1="827.5" y1="23" x2="827.5" y2="8" stroke="black"/>
<line x1="1016.5" y1="23" x2="1016.5" y2="8" stroke="black"/>
<line x1="1105.5" y1="23" x2="1105.5" y2="8" stroke="black"/>
<line x1="1200.5" y1="23" x2="1200.5" y2="8" stroke="black"/>
<line x1="1289.5" y1="23" x2="1289.5" y2="8" stroke="black"/>
<line x1="1378.5" y1="30" x2="1378.5" y2="1.03495e-07" stroke="black" stroke-width="3"/>
<line x1="1.5" y1="30" x2="1.5" y2="1.03495e-07" stroke="black" stroke-width="3"/>
<line x1="91.5" y1="23" x2="91.5" y2="8" stroke="black"/>
<line x1="180.5" y1="23" x2="180.5" y2="8" stroke="black"/>
<line x1="275.5" y1="23" x2="275.5" y2="8" stroke="black"/>
<line x1="364.5" y1="23" x2="364.5" y2="8" stroke="black"/>
</svg>
