<svg width="250" height="256" viewBox="0 0 250 256" fill="none" xmlns="http://www.w3.org/2000/svg">
<g clip-path="url(#clip0_266_4311)">
<path d="M125.491 220.739H124.137V255.319H125.491V220.739Z" fill="black"/>
<path d="M173.157 207.602L171.985 208.28L189.251 238.207L190.423 237.53L173.157 207.602Z" fill="black"/>
<path d="M61.0947 12.6629L59.917 13.3402L77.1903 43.4172L78.368 42.7399L61.0947 12.6629Z" fill="black"/>
<path d="M12.553 59.5646L11.8785 60.7336L41.7805 78.0098L42.455 76.8408L12.553 59.5646Z" fill="black"/>
<path d="M136.147 0.0658251H136.081V0.427995C137.604 1.97077 137.42 3.64054 136.471 6.57556L132.104 20.3664L125.9 5.08453C124.922 2.64338 124.645 1.4863 125.477 0.630252V0.263374L120.208 0.348035H120.142V0.710212C121.418 2.15035 122.454 3.78605 123.212 5.55489C123.085 5.9594 122.958 6.39683 122.831 6.82015L118.422 20.5875L112.223 5.3056C111.24 2.86445 110.968 1.70737 111.795 0.85132V0.827801V0.465624L106.521 0.550292H106.455V0.91717C107.767 2.41761 108.646 3.73931 110.093 7.06003L117.064 24.1481V24.1951L119.842 24.1481L118.652 21.1566L123.447 6.10521L123.79 6.85307L130.694 23.927V23.9694L133.411 23.9223H133.514L132.302 20.9497L136.861 6.66022C137.942 3.30188 138.91 1.82496 140.222 0.404483V0.0375977L136.147 0.0658251Z" fill="black"/>
<path d="M174.665 29.5713L176.728 27.8639L183.835 32.1253L183.06 36.6172C182.589 39.2042 182.228 40.3331 181.071 40.6247H181.043L180.874 40.9116L185.396 43.6209L185.452 43.6585L185.621 43.3763V43.3528C185.302 41.3725 185.245 39.7969 185.795 36.1845L188.977 18.0617V18.0193L186.627 16.6083L186.542 16.5565L185.992 19.6985L174.331 29.3126C171.605 31.5797 169.984 32.3229 168.103 32.8403H168.075L167.906 33.1225L171.384 35.2109L171.441 35.2438L171.61 34.9569V34.9334C171.177 32.8967 172.249 31.575 174.665 29.5713ZM177.067 27.5958L185.894 20.3053L183.915 31.702L177.067 27.5958Z" fill="black"/>
<path d="M212.676 75.1818L212.737 75.1489L212.948 75.0407H212.981V75.0031C212.981 74.481 213.197 74.0012 214.26 73.3662L232.355 62.5198L232.703 63.0983C234.546 66.1745 233.878 69.0154 233.107 71.4331V71.4848L233.389 71.6635L236.445 68.5357L227.594 53.7477L227.571 53.7053L223.425 54.9094H223.373V55.2434H223.425C225.921 55.7137 228.732 56.4569 230.579 59.533L230.922 60.1163L212.826 70.9627C211.764 71.5977 211.242 71.5648 210.781 71.3202H210.749L210.452 71.4942L212.643 75.1536L212.676 75.1818Z" fill="black"/>
<path d="M246.292 115.661C245.186 114.466 243.844 113.514 242.351 112.866C240.858 112.218 239.247 111.888 237.62 111.898C231.039 112.011 225.549 117.829 225.662 124.598C225.747 129.771 228.139 133.459 232.778 135.599L232.839 135.632L232.99 135.27L232.933 135.242C229.573 133.595 227.533 131.098 227.035 128.012C226.029 122.091 229.051 117.218 234.926 115.313C238.499 114.156 242.31 114.414 245.121 115.999C246.09 116.523 246.936 117.247 247.604 118.123C248.271 118.998 248.745 120.006 248.994 121.079C250.066 125.722 246.771 129.781 243.326 132.029H243.293V132.358L247.213 133.299H247.26L247.288 133.257C249.088 130.435 250.052 128.177 249.991 124.447C249.89 121.16 248.571 118.029 246.292 115.661Z" fill="black"/>
<path d="M237.319 179.46H237.286H237.248C236.713 179.78 236.158 179.686 235.204 179.136L218.617 169.526C217.677 168.971 217.305 168.534 217.315 167.913V167.87H217.282L217.075 167.753L217.019 167.72L214.885 171.408L214.852 171.464L215.148 171.638H215.181C215.651 171.389 216.121 171.365 217.211 171.991L227.246 177.809L221.409 187.814L211.388 182C210.448 181.445 210.076 181.008 210.081 180.387V180.349H210.048L209.846 180.227L209.785 180.194L207.651 183.881L207.618 183.943L207.914 184.112H207.947C208.394 183.863 208.887 183.839 209.982 184.469L226.579 194.041C227.669 194.671 227.89 195.114 227.9 195.626V195.664H227.933L228.168 195.8L228.224 195.833L230.339 192.16L230.372 192.103L230.043 191.915H230.01C229.474 192.23 228.92 192.141 227.961 191.586L221.733 187.978L227.557 177.908L233.789 181.516C234.875 182.146 235.1 182.593 235.11 183.105V183.143H235.143L235.378 183.279L235.434 183.312L237.568 179.625L237.601 179.564L237.544 179.531C237.544 179.531 237.389 179.46 237.319 179.46Z" fill="black"/>
<path d="M65.5633 207.432L62.7432 210.56L62.715 210.593L62.856 210.913H62.9171C64.3738 210.365 65.9368 210.16 67.4853 210.313C69.0338 210.467 70.5263 210.974 71.8475 211.797L74.4044 213.387L63.2837 231.293C62.6304 232.347 62.198 232.563 61.6856 232.563H61.601V232.61L61.46 232.841L61.4271 232.897L65.0416 235.146L65.1027 235.179L65.1356 235.122C65.1356 235.122 65.2437 234.953 65.2766 234.892L65.3001 234.859V234.826C65.0416 234.355 65.0181 233.885 65.6902 232.789L75.7957 216.496C76.3597 215.588 76.7921 215.24 77.3797 215.24H77.4878V215.207L77.6147 215.01L77.6476 214.948L65.615 207.479L65.5633 207.432Z" fill="black"/>
<path d="M40.2338 180.871L39.9471 181.036V181.059C39.3314 183.077 37.7521 183.707 34.6688 184.286L32.032 184.756L27.8864 177.579L30.7488 174.032C32.4033 171.995 33.2869 171.21 34.4338 171.502H34.462L34.7487 171.332L32.1166 166.76L32.0837 166.699L31.7969 166.869V166.892C31.1107 168.774 30.3869 170.185 28.159 173.073L16.5682 187.367L16.54 187.404L17.8937 189.756L17.9454 189.841L19.9524 187.362L34.8098 184.672C38.2927 184.018 40.074 184.159 41.9729 184.625H41.9964L42.2831 184.455L40.2573 180.937L40.2338 180.871ZM31.5948 184.841L20.3143 186.915L27.5903 177.917L31.5948 184.841Z" fill="black"/>
<path d="M21.7479 134.602C22.8995 134.602 23.299 134.861 23.5575 135.279L23.581 135.312H23.9194L23.7643 125.947C23.6891 121.347 21.9453 116.009 17.2827 116.009H17.1793C12.4462 116.089 11.3181 121.531 11.069 123.92C10.364 119.762 8.54502 117.655 5.66378 117.655H5.56508C1.8331 117.716 -0.0751892 121.225 0.0188153 127.796L0.150421 135.637V135.717H0.52644V135.684C0.784952 135.242 1.19387 134.964 2.45353 134.941L21.6116 134.626L21.7479 134.602ZM23.4917 131.78L11.4263 131.977L11.3322 126.159C11.2899 123.633 11.901 121.71 13.1418 120.43C14.2328 119.365 15.7019 118.776 17.2263 118.793H17.3532C18.8428 118.749 20.2911 119.287 21.3907 120.294C22.6786 121.526 23.3554 123.436 23.393 125.962L23.4917 131.78ZM11.022 131.987L0.49824 132.142L0.427739 127.782C0.347836 122.979 2.09162 120.52 5.59798 120.458H5.72018C9.11374 120.458 10.8904 122.862 10.9562 127.608L11.022 131.987Z" fill="black"/>
</g>
<defs>
<clipPath id="clip0_266_4311">
<rect width="250" height="255.319" fill="white"/>
</clipPath>
</defs>
</svg>
