<svg width="134" height="134" viewBox="0 0 134 134" fill="none" xmlns="http://www.w3.org/2000/svg">
<g clip-path="url(#clip0_61_206)">
<path d="M67.346 116.194H66.649V134H67.346V116.194Z" fill="black"/>
<path d="M67.346 0H66.649V17.7984H67.346V0Z" fill="black"/>
<path d="M91.906 109.426L91.3024 109.775L100.199 125.184L100.803 124.836L91.906 109.426Z" fill="black"/>
<path d="M33.797 8.79004L33.1934 9.13867L42.0978 24.5553L42.7014 24.2066L33.797 8.79004Z" fill="black"/>
<path d="M109.786 91.3033L109.437 91.907L124.847 100.804L125.196 100.2L109.786 91.3033Z" fill="black"/>
<path d="M9.14857 33.193L8.80005 33.7966L24.2096 42.6933L24.5581 42.0897L9.14857 33.193Z" fill="black"/>
<path d="M42.0869 109.42L33.1929 124.831L33.7967 125.18L42.6907 109.769L42.0869 109.42Z" fill="black"/>
<path d="M100.188 8.78345L91.2888 24.2031L91.8925 24.5515L100.791 9.13187L100.188 8.78345Z" fill="black"/>
<path d="M24.2026 91.3042L8.7962 100.206L9.14494 100.81L24.5514 91.9078L24.2026 91.3042Z" fill="black"/>
<path d="M124.844 33.2002L109.437 42.1023L109.786 42.7058L125.192 33.8038L124.844 33.2002Z" fill="black"/>
<path d="M17.7984 66.6489H0V67.346H17.7984V66.6489Z" fill="black"/>
<path d="M134 66.6489H116.194V67.346H134V66.6489Z" fill="black"/>
</g>
<defs>
<clipPath id="clip0_61_206">
<rect width="134" height="134" fill="white"/>
</clipPath>
</defs>
</svg>
