<svg width="300" height="25" viewBox="0 0 300 25" fill="none" xmlns="http://www.w3.org/2000/svg">
<g clip-path="url(#clip0_61_156)">
<path d="M30.4577 0.691311C32.0033 2.31098 31.7861 4.02943 30.759 7.04162L25.9691 21.1742L19.8262 5.30343C18.8386 2.77022 18.5917 1.57028 19.4706 0.691311V0.350586H14.0388V0.691311C15.3311 2.19656 16.3716 3.90075 17.1201 5.73798C16.9769 6.16265 16.8337 6.63177 16.7053 7.04162L11.9155 21.1742L5.77749 5.30343C4.78988 2.77022 4.53804 1.57028 5.41701 0.691311V0.350586H-0.0148163V0.691311C1.28389 2.22704 2.20729 3.65412 3.62944 7.07618L10.4439 24.7346V24.7691H13.2537L12.0883 21.6928L17.2979 6.25154L17.6831 7.08112L24.4976 24.7395V24.7741H27.3468L26.1469 21.6977L31.0849 7.07618C32.2552 3.64425 33.2774 2.13816 34.6551 0.696254V0.355529H30.4182L30.4577 0.691311Z" fill="black"/>
<path d="M63.7647 18.0435L56.9848 0.380213V0.350586H54.1257L55.2911 3.38747L50.0815 18.0435C48.8716 21.5002 47.8297 22.9816 46.4421 24.463V24.7741H50.6395V24.463C49.1581 22.868 49.4 21.1347 50.4716 18.0781L51.3999 15.4708H59.9575L61.6513 19.8558C62.6389 22.3841 62.8858 23.584 62.0068 24.463V24.7741H67.4386V24.463C66.0757 22.8828 65.1918 21.5199 63.7647 18.0435ZM59.7896 15.0807H51.5135L55.4639 3.89609L59.7896 15.0807Z" fill="black"/>
<path d="M81.3194 0.350586L80.1837 4.66149L80.4602 4.79975L80.4849 4.77505C82.2182 2.79984 84.3711 0.720938 88.0648 0.720938H88.7907V22.4483C88.7907 23.7321 88.4845 24.1815 88.0154 24.458V24.779H92.4201V24.458H92.3954C91.9313 24.1815 91.6202 23.7321 91.6202 22.4483V0.720938H92.3362C96.0298 0.720938 98.1877 2.81466 99.916 4.77505V4.79975L100.193 4.66149L99.0618 0.350586H81.3194Z" fill="black"/>
<path d="M138.966 17.7226C137.218 21.1792 134.606 23.2186 131.426 23.6779C125.298 24.6161 120.34 21.4212 118.473 15.3326C117.342 11.6291 117.673 7.70827 119.357 4.83928C119.913 3.84855 120.674 2.98746 121.588 2.31317C122.502 1.63888 123.55 1.16683 124.661 0.928371C129.46 -0.093801 133.584 3.37269 135.84 6.9577V6.98238H136.146L137.208 2.94802H137.178C134.295 1.04688 132.008 0.0197754 128.181 0.0197754C124.775 0.049214 121.504 1.35284 119.011 3.67391C117.774 4.79239 116.782 6.15548 116.099 7.67694C115.416 9.19841 115.055 10.8451 115.041 12.513C115.048 14.17 115.392 15.8084 116.052 17.3281C116.713 18.8478 117.676 20.217 118.883 21.3521C121.306 23.6759 124.528 24.9834 127.885 25.0062C133.179 25.0062 137.02 22.6112 139.297 17.8856L139.322 17.8411L138.986 17.6979L138.966 17.7226Z" fill="black"/>
<path d="M170.401 0.701182H170.426C170.989 1.01722 171.201 1.56534 171.201 2.71096V10.118H159.197V2.71096C159.197 1.57028 159.4 1.02709 159.938 0.701182V0.350586H155.553V0.701182H155.577C156.145 1.01722 156.353 1.56534 156.353 2.71096V22.4384C156.353 23.5889 156.145 24.1321 155.577 24.4482H155.553V24.7691H159.962V24.4482C159.424 24.1272 159.222 23.5791 159.222 22.4384V10.4933H171.226V22.4384C171.226 23.5889 171.014 24.1321 170.451 24.4482H170.426V24.7691H174.836V24.4482H174.811C174.268 24.1272 174.07 23.584 174.07 22.4384V2.72578C174.07 1.58509 174.268 1.04191 174.811 0.715995H174.836V0.365399H170.426L170.401 0.701182Z" fill="black"/>
<path d="M228.384 20.3594C227.405 21.6324 226.146 22.663 224.705 23.3712C223.264 24.0793 221.679 24.4461 220.073 24.4432H216.957V2.71585C216.957 1.40727 217.229 0.987532 217.703 0.706065V0.355469H213.298V0.706065H213.323C213.817 0.982594 214.098 1.39739 214.098 2.71585V22.4383C214.098 23.5889 213.886 24.1321 213.323 24.4481H213.298V24.7691H227.885L228.66 20.4878L228.389 20.31L228.384 20.3594Z" fill="black"/>
<path d="M260.876 18.0435L254.096 0.380213V0.350586H251.252L252.417 3.38747L247.193 18.0435C245.983 21.5002 244.941 22.9816 243.553 24.463V24.7741H247.751V24.463C246.269 22.868 246.516 21.1347 247.588 18.0781L248.486 15.4758H257.044L258.733 19.8607C259.721 22.389 259.972 23.589 259.093 24.4679V24.779H264.525V24.4679C263.187 22.8828 262.303 21.5199 260.876 18.0435ZM256.926 15.0807H248.625L252.575 3.89609L256.926 15.0807Z" fill="black"/>
<path d="M291.837 11.7624C296.282 11.1204 298.504 9.24892 298.504 6.20215C298.504 1.36288 292.904 0.350586 288.203 0.350586H280.085V0.701182H280.11C280.653 1.02709 280.85 1.57028 280.85 2.71096V22.4384C280.85 23.5791 280.653 24.1272 280.11 24.4482H280.085V24.7691H289.694C292.052 24.8126 294.388 24.3213 296.529 23.3322C298.8 22.1767 299.985 20.3694 299.985 18.1818C300 13.2339 294.213 12.0192 291.837 11.7624ZM288.203 11.6142H283.695V0.720938H288.203C293.141 0.720938 295.664 2.56283 295.664 6.20215C295.664 9.84148 293.151 11.6142 288.203 11.6142ZM289.684 24.4531H283.695V11.9895H289.694C296.652 11.9895 297.195 16.7399 297.195 18.1966C297.175 20.078 296.464 24.4432 289.694 24.4432L289.684 24.4531Z" fill="black"/>
</g>
<defs>
<clipPath id="clip0_61_156">
<rect width="300" height="24.9914" fill="white"/>
</clipPath>
</defs>
</svg>
